{"title":"Fast five 2011 PPV Xvid - PRESTiGE","uid":6528134,"size":739874921,"categoryP":"video","categoryS":"movies","magnet":"?xt=urn:btih:a98cf2dc847813b08da97365cc5319d729e89a7a&amp;dn=Fast+five+2011+PPV+Xvid+-+PRESTiGE&amp;tr=udp%3A%2F%2Ftracker.openbittorrent.com%3A80&amp;tr=udp%3A%2F%2Fopen.demonii.com%3A1337&amp;tr=udp%3A%2F%2Ftracker.coppersurfer.tk%3A6969&amp;tr=udp%3A%2F%2Fexodus.desync.com%3A6969","seeders":1,"leechers":0,"uploader":"HeroMaster","files":-1,"time":1310223809,"description":":::::: PRESTiGE Presents ::::::\n\n\nFast five 2011 PPV Xvid - PRESTiGE\n\n\n::Information::\n\n\nFile size: 706 MiB\nDuration: 2h 10mn\nOverall bit rate: 758 Kbps\n\nVideo\nID: 0\nFormat: MPEG-4 Visual\nFormat profile: Advanced Simple@L5\nFormat settings, BVOP: 2\nFormat settings, QPel: No\nFormat settings, GMC: No warppoints\nFormat settings, Matrix: Default (H.263)\nMuxing mode: Packed bitstream\nCodec ID: XVID\nCodec ID/Hint: XviD\nDuration: 2h 10mn\nBit rate: 620 Kbps\nWidth: 720 pixels\nHeight: 528 pixels\nDisplay aspect ratio: 4:3\nFrame rate: 25.000 fps\nColor space: YUV\nChroma subsampling: 4:2:0\nBit depth: 8 bits\nScan type: Progressive\nCompression mode: Lossy\nBits/(Pixel*Frame): 0.065\nStream size: 577 MiB (82%)\nWriting library: XviD 1.2.0.dev47 (UTC 2006-11-01)\n\nAudio\nID: 1\nFormat: MPEG Audio\nFormat version: Version 1\nFormat profile: Layer 3\nMode: Joint stereo\nMode extension: MS Stereo\nCodec ID: 55\nCodec ID/Hint: MP3\nDuration: 2h 10mn\nBit rate mode: Constant\nBit rate: 128 Kbps\nChannel(s): 2 channels\nSampling rate: 44.1 KHz\nCompression mode: Lossy\nDelay relative to video: 26ms\nStream size: 119 MiB (17%)\nAlignment: Split accross interleaves\nInterleave, duration: 40 ms (1.00 video frame)\nInterleave, preload duration: 500 ms\n\n\nsource - PPVRIP-IFLIX :bow:\nsubs - hardcoded in english\n\n\n::Plot::\n\n\nFormer cop Brian O'Conner partners with ex-con Dom Toretto on the opposite side of the law. Since Brian and Mia Toretto broke Dom out of custody, they've blown across many borders to elude authorities. Now backed into a corner in Rio de Janeiro, they must pull one last job in order to gain their freedom. As they assemble their elite team of top racers, the unlikely allies know their only shot of getting out for good means confronting the corrupt businessman who wants them dead. But he's not the only one on their tail.\n\n\n::Cast::\n\n\nVin Diesel ... Dominic Toretto\nPaul Walker ... Brian O'Conner\nJordana Brewster ... Mia\nTyrese Gibson ... Roman\nMatt Schulze ... Vince\n\n\n::Screens::\n\n &lt;a href=&quot;\nhttp://leetleech.org/images/13120402386438101494.png&quot; rel=&quot;nofollow&quot; target=&quot;_NEW&quot;&gt;\nhttp://leetleech.org/images/13120402386438101494.png&lt;/a&gt;\n &lt;a href=&quot;\nhttp://leetleech.org/images/44225718482047917116.png&quot; rel=&quot;nofollow&quot; target=&quot;_NEW&quot;&gt;\nhttp://leetleech.org/images/44225718482047917116.png&lt;/a&gt;\n &lt;a href=&quot;\nhttp://leetleech.org/images/54660911064872400055.png&quot; rel=&quot;nofollow&quot; target=&quot;_NEW&quot;&gt;\nhttp://leetleech.org/images/54660911064872400055.png&lt;/a&gt;\n\n\nENJOY!\n\n\n","torrent":{"xt":"urn:btih:a98cf2dc847813b08da97365cc5319d729e89a7a","amp;dn":"Fast+five+2011+PPV+Xvid+-+PRESTiGE","amp;tr":["udp%3A%2F%2Ftracker.openbittorrent.com%3A80","udp%3A%2F%2Fopen.demonii.com%3A1337","udp%3A%2F%2Ftracker.coppersurfer.tk%3A6969","udp%3A%2F%2Fexodus.desync.com%3A6969"],"infoHash":"a98cf2dc847813b08da97365cc5319d729e89a7a","infoHashBuffer":{"type":"Buffer","data":[169,140,242,220,132,120,19,176,141,169,115,101,204,83,25,215,41,232,154,122]},"announce":[],"urlList":[]}}